<svg version="1.1" id="Logo" xmlns="http://www.w3.org/2000/svg" x="0" y="0" viewBox="0 0 137 28" xml:space="preserve"><style/><path d="M40.5 23v-2.4l2.1-.4V5.9l-2.1-.4V3.1h8.8c2.3 0 4.2.5 5.5 1.4s2 2.3 2 4.1c0 .9-.2 1.7-.7 2.5-.5.7-1.2 1.3-2.1 1.6.8.2 1.5.5 2 .9s.9 1 1.2 1.6c.3.6.4 1.3.4 2 0 1.9-.6 3.3-1.9 4.3s-3 1.5-5.3 1.5h-9.9zm6.1-11.6h2.9c1.1 0 1.9-.2 2.5-.7s.9-1.1.9-1.9c0-.9-.3-1.6-.9-2-.6-.4-1.4-.7-2.6-.7h-2.7v5.3zm0 8.5h3.7c1.1 0 1.9-.2 2.4-.7.6-.5.8-1.1.8-2 0-.7-.1-1.2-.3-1.7-.2-.4-.5-.8-1-1-.4-.2-1-.3-1.7-.3h-4v5.7zm22.1 3.4c-1.6 0-3-.3-4.2-.8-1.2-.5-2.1-1.3-2.8-2.4-.7-1-1-2.3-1-3.8V5.9l-2.1-.4V3.1h8.2v2.4l-2.1.4v10.4c0 .9.2 1.6.5 2.2.3.6.8 1 1.4 1.3.6.3 1.3.4 2.1.4s1.6-.1 2.2-.4 1.1-.7 1.4-1.3c.3-.6.5-1.3.5-2.2V5.9l-2.1-.4V3.1h8.2v2.4l-2.1.4v10.4c0 1.5-.3 2.8-1 3.8s-1.6 1.8-2.8 2.4-2.7.8-4.3.8zm29.4-3l-6.4-8.6 5.8-5.8 1.8-.4V3.1h-8.1v2.4l1.9.2-6.9 7.1V5.9l2.1-.4V3.1h-8.2v2.4l2.2.4v14.3l-2.2.4V23h8.2v-2.4l-2.1-.4v-2.9l2.9-2.9 4.4 6-1.9.2V23h8.5v-2.4z" fill="#fefefe"/><path d="M101.3 23v-2.4l2.1-.4V5.9l-2.1-.4V3.1h15.4v5.4h-3.1l-.2-2.3h-6.1v5h6.7v3.1h-6.7V20h6.4l.2-2.4h3V23h-15.6zm17.8 0v-2.4l2.1-.4V5.9l-2.1-.4V3.1h15.4v5.4h-3.1l-.2-2.3h-6.1v5h6.7v3.1h-6.7V20h6.4l.2-2.4h3V23h-15.6z" fill="#65e496"/><g id="logo_icon" fill-rule="evenodd" clip-rule="evenodd"><path id="Rectangle_10_copy_3" d="M28 28L0 0h28v28z" fill="#65e496"/><path d="M28 0L0 28V0h28z" fill="#44444f"/></g></svg>