<?xml version="1.0" encoding="utf-8"?>
<!-- Generator: Adobe Illustrator 24.3.0, SVG Export Plug-In . SVG Version: 6.00 Build 0)  -->
<svg version="1.1" id="Logo" xmlns="http://www.w3.org/2000/svg" xmlns:xlink="http://www.w3.org/1999/xlink" x="0px" y="0px"
	 viewBox="0 0 137 28" style="enable-background:new 0 0 137 28;" xml:space="preserve">
<style type="text/css">
	.st0{enable-background:new    ;}
	.st1{fill:#FEFEFE;}
	.st2{fill:#65E496;}
	.st3{fill-rule:evenodd;clip-rule:evenodd;fill:#65E496;}
	.st4{fill-rule:evenodd;clip-rule:evenodd;fill:#44444F;}
</style>
<g class="st0">
	<path class="st1" d="M40.5,23v-2.4l2.1-0.4V5.9l-2.1-0.4V3.1h2.1h6.7c2.3,0,4.2,0.5,5.5,1.4s2,2.3,2,4.1c0,0.9-0.2,1.7-0.7,2.5
		c-0.5,0.7-1.2,1.3-2.1,1.6c0.8,0.2,1.5,0.5,2,0.9s0.9,1,1.2,1.6c0.3,0.6,0.4,1.3,0.4,2c0,1.9-0.6,3.3-1.9,4.3s-3,1.5-5.3,1.5H40.5z
		 M46.6,11.4h2.9c1.1,0,1.9-0.2,2.5-0.7s0.9-1.1,0.9-1.9c0-0.9-0.3-1.6-0.9-2c-0.6-0.4-1.4-0.7-2.6-0.7h-2.7V11.4z M46.6,19.9h3.7
		c1.1,0,1.9-0.2,2.4-0.7c0.6-0.5,0.8-1.1,0.8-2c0-0.7-0.1-1.2-0.3-1.7c-0.2-0.4-0.5-0.8-1-1c-0.4-0.2-1-0.3-1.7-0.3h-4V19.9z"/>
	<path class="st1" d="M68.7,23.3c-1.6,0-3-0.3-4.2-0.8c-1.2-0.5-2.1-1.3-2.8-2.4c-0.7-1-1-2.3-1-3.8V5.9l-2.1-0.4V3.1h8.2v2.4
		l-2.1,0.4v10.4c0,0.9,0.2,1.6,0.5,2.2c0.3,0.6,0.8,1,1.4,1.3c0.6,0.3,1.3,0.4,2.1,0.4c0.8,0,1.6-0.1,2.2-0.4s1.1-0.7,1.4-1.3
		c0.3-0.6,0.5-1.3,0.5-2.2V5.9l-2.1-0.4V3.1h8.2v2.4l-2.1,0.4v10.4c0,1.5-0.3,2.8-1,3.8s-1.6,1.8-2.8,2.4S70.3,23.3,68.7,23.3z"/>
	<polygon class="st1" points="98.1,20.3 91.7,11.7 97.5,5.9 99.3,5.5 99.3,3.1 91.2,3.1 91.2,5.5 93.1,5.7 93.1,5.7 86.2,12.8 
		86.2,5.9 88.3,5.5 88.3,3.1 80.1,3.1 80.1,5.5 82.3,5.9 82.3,20.2 80.1,20.6 80.1,23 88.3,23 88.3,20.6 86.2,20.2 86.2,17.3 
		89.1,14.4 93.5,20.4 93.5,20.4 91.6,20.6 91.6,23 100.1,23 100.1,20.6 	"/>
</g>
<g class="st0">
	<path class="st2" d="M101.3,23v-2.4l2.1-0.4V5.9l-2.1-0.4V3.1h15.4v5.4h-3.1l-0.2-2.3h-6.1v5h6.7v3.1h-6.7v5.7h6.4l0.2-2.4h3V23
		H101.3z"/>
	<path class="st2" d="M119.1,23v-2.4l2.1-0.4V5.9l-2.1-0.4V3.1h15.4v5.4h-3.1l-0.2-2.3h-6.1v5h6.7v3.1h-6.7v5.7h6.4l0.2-2.4h3V23
		H119.1z"/>
</g>
<g id="logo_icon">
	<path id="Rectangle_10_copy_3" class="st3" d="M28,28L0,0h28V28z"/>
	<path class="st4" d="M28,0L0,28V0H28z"/>
</g>
</svg>
